# xmcd
#
# Track frame offsets: 
#        150
#        35470
#        72764
#        91086
#        129233
#        175936
#        215610
#        263677
#        292145
#        328391
#
# Disc length: 4791 seconds
#
# Revision: 0
# Processed by: cddbd v1.5.2PL0 Copyright (c) Steve Scherf et al.
# Submitted via: ExactAudioCopy v0.95b4
#
DISCID=9412b50a
DTITLE=Various Artist - Boys Keep Swinging- CD 2
DYEAR=2005
DGENRE=Eurodance
TTITLE0=Evelyn Thomas - High Energy
TTITLE1=Miquel Brown - So Many Men, So Little Time
TTITLE2=Sylvester - Dance (Disco Heat)
TTITLE3=Peter Jaques Band - Fire Night Dance
TTITLE4=Macho - Because There is Music in the Air
TTITLE5=Revanche - Revanche
TTITLE6=Boys Town Gang - Crusin' the Streets
TTITLE7=Barbara Pennington - All American Boy
TTITLE8=Earlene Bentley - The Boys Come to Town
TTITLE9=Azoto - San Salvador
EXTD=
EXTT0=
EXTT1=
EXTT2=
EXTT3=
EXTT4=
EXTT5=
EXTT6=
EXTT7=
EXTT8=
EXTT9=
PLAYORDER=
